<svg width="24" height="22" viewBox="0 0 24 22" fill="none" xmlns="http://www.w3.org/2000/svg">
<path d="M15.4291 16.5982C13.558 18.0903 11.4488 18.6875 9.09875 18.2892C7.14739 17.9583 5.54101 16.9885 4.30938 15.4295C1.62659 12.033 2.23629 7.35659 5.20294 4.68344C6.59202 3.42187 8.38585 2.70477 10.257 2.66306C12.1281 2.62135 13.9518 3.25779 15.3951 4.45623C17.0552 5.83397 18.0109 7.62391 18.2187 9.78274C18.4266 11.9416 17.8057 13.8662 16.4417 15.5813C16.7554 15.8887 17.0722 16.1956 17.3853 16.5062C17.8211 16.9393 18.2554 17.3739 18.6881 17.8102C19.1665 18.2914 19.6449 18.7789 20.1297 19.2574C20.5103 19.6317 20.4486 20.2091 19.975 20.4593C19.7188 20.5951 19.3797 20.5785 19.0623 20.2545C18.2501 19.4258 17.4304 18.6052 16.6134 17.7819C16.2516 17.4172 15.8893 17.0535 15.5264 16.6907C15.4972 16.6623 15.4679 16.6351 15.4291 16.5982ZM10.4277 16.9484C13.936 16.9452 16.7974 14.0817 16.8032 10.543C16.809 7.01443 13.9492 4.12743 10.4324 4.12101C6.92413 4.11406 4.0537 7.00801 4.05689 10.5366C4.06008 14.0651 6.91456 16.9414 10.4282 16.9484H10.4277Z" fill="#9BA8AB"/>
</svg>
